<?xml version="1.0" encoding="UTF-8" standalone="no"?>
<!-- Generator: Adobe Illustrator 19.0.0, SVG Export Plug-In . SVG Version: 6.00 Build 0)  -->

<svg
   xmlns:dc="http://purl.org/dc/elements/1.1/"
   xmlns:cc="http://creativecommons.org/ns#"
   xmlns:rdf="http://www.w3.org/1999/02/22-rdf-syntax-ns#"
   xmlns:svg="http://www.w3.org/2000/svg"
   xmlns="http://www.w3.org/2000/svg"
   xmlns:sodipodi="http://sodipodi.sourceforge.net/DTD/sodipodi-0.dtd"
   xmlns:inkscape="http://www.inkscape.org/namespaces/inkscape"
   version="1.1"
   id="Capa_1"
   x="0px"
   y="0px"
   viewBox="0 0 648 512"
   xml:space="preserve"
   sodipodi:docname="patient.svg"
   inkscape:version="0.92.5 (2060ec1f9f, 2020-04-08)"
   width="648"
   height="512"><metadata
   id="metadata43"><rdf:RDF><cc:Work
       rdf:about=""><dc:format>image/svg+xml</dc:format><dc:type
         rdf:resource="http://purl.org/dc/dcmitype/StillImage" /><dc:title></dc:title></cc:Work></rdf:RDF></metadata><defs
   id="defs41" /><sodipodi:namedview
   pagecolor="#ffffff"
   bordercolor="#666666"
   borderopacity="1"
   objecttolerance="10"
   gridtolerance="10"
   guidetolerance="10"
   inkscape:pageopacity="0"
   inkscape:pageshadow="2"
   inkscape:window-width="1366"
   inkscape:window-height="707"
   id="namedview39"
   showgrid="false"
   inkscape:zoom="0.46093749"
   inkscape:cx="-1.4299373"
   inkscape:cy="283.24096"
   inkscape:window-x="0"
   inkscape:window-y="0"
   inkscape:window-maximized="1"
   inkscape:current-layer="Capa_1" />
<g
   id="g6"
   transform="translate(-32.542374,2.1694916)">
	<g
   id="g4">
		<path
   d="m 279.999,0 c -105.888,0 -192,86.112 -192,192 v 28.224 l -46.304,92.608 c -2.496,4.96 -2.208,10.848 0.704,15.552 2.912,4.704 8.064,7.616 13.6,7.616 h 32 v 77.056 c 0,9.408 4.096,18.272 11.296,24.352 7.2,6.08 16.544,8.736 25.888,7.168 l 58.816,-9.728 V 496 c 0,4.704 2.048,9.184 5.664,12.192 2.912,2.464 6.56,3.808 10.336,3.808 0.864,0 1.76,-0.064 2.624,-0.224 l 192,-32 c 7.712,-1.28 13.376,-7.936 13.376,-15.776 v -98.592 c 0,-22.272 10.944,-40.128 20.128,-51.232 C 456.415,280 471.999,236.608 471.999,192 471.999,86.112 385.887,0 279.999,0 Z m 123.488,293.792 c -17.984,21.696 -27.488,46.464 -27.488,71.616 v 85.024 l -160,26.688 V 416 c 0,-4.704 -2.048,-9.152 -5.664,-12.192 -2.912,-2.464 -6.56,-3.808 -10.336,-3.808 -0.864,0 -1.728,0.064 -2.624,0.224 l -77.376,12.832 V 320 c 0,-8.832 -7.168,-16 -16,-16 H 81.887 l 36.416,-72.832 c 1.12,-2.24 1.696,-4.672 1.696,-7.168 v -32 c 0,-88.224 71.776,-160 160,-160 88.224,0 160,71.776 160,160 0,37.152 -12.96,73.312 -36.512,101.792 z"
   id="path2"
   inkscape:connector-curvature="0" />
	</g>
</g>
<g
   id="g8">
</g>
<g
   id="g10">
</g>
<g
   id="g12">
</g>
<g
   id="g14">
</g>
<g
   id="g16">
</g>
<g
   id="g18">
</g>
<g
   id="g20">
</g>
<g
   id="g22">
</g>
<g
   id="g24">
</g>
<g
   id="g26">
</g>
<g
   id="g28">
</g>
<g
   id="g30">
</g>
<g
   id="g32">
</g>
<g
   id="g34">
</g>
<g
   id="g36">
</g>
<path
   style="color:#000000;font-style:normal;font-variant:normal;font-weight:normal;font-stretch:normal;font-size:medium;line-height:normal;font-family:sans-serif;font-variant-ligatures:normal;font-variant-position:normal;font-variant-caps:normal;font-variant-numeric:normal;font-variant-alternates:normal;font-feature-settings:normal;text-indent:0;text-align:start;text-decoration:none;text-decoration-line:none;text-decoration-style:solid;text-decoration-color:#000000;letter-spacing:normal;word-spacing:normal;text-transform:none;writing-mode:lr-tb;direction:ltr;text-orientation:mixed;dominant-baseline:auto;baseline-shift:baseline;text-anchor:start;white-space:normal;shape-padding:0;clip-rule:nonzero;display:inline;overflow:visible;visibility:visible;opacity:1;isolation:auto;mix-blend-mode:normal;color-interpolation:sRGB;color-interpolation-filters:linearRGB;solid-color:#000000;solid-opacity:1;vector-effect:none;fill:#000000;fill-opacity:1;fill-rule:nonzero;stroke:none;stroke-width:39.92803574px;stroke-linecap:butt;stroke-linejoin:miter;stroke-miterlimit:4;stroke-dasharray:none;stroke-dashoffset:0;stroke-opacity:1;color-rendering:auto;image-rendering:auto;shape-rendering:auto;text-rendering:auto;enable-background:accumulate"
   d="m 628.92935,134.35693 -162.24921,1.17511 0.31822,38.57205 162.24918,-1.17511 z"
   id="path866-3"
   inkscape:connector-curvature="0" /><path
   style="color:#000000;font-style:normal;font-variant:normal;font-weight:normal;font-stretch:normal;font-size:medium;line-height:normal;font-family:sans-serif;font-variant-ligatures:normal;font-variant-position:normal;font-variant-caps:normal;font-variant-numeric:normal;font-variant-alternates:normal;font-feature-settings:normal;text-indent:0;text-align:start;text-decoration:none;text-decoration-line:none;text-decoration-style:solid;text-decoration-color:#000000;letter-spacing:normal;word-spacing:normal;text-transform:none;writing-mode:lr-tb;direction:ltr;text-orientation:mixed;dominant-baseline:auto;baseline-shift:baseline;text-anchor:start;white-space:normal;shape-padding:0;clip-rule:nonzero;display:inline;overflow:visible;visibility:visible;opacity:1;isolation:auto;mix-blend-mode:normal;color-interpolation:sRGB;color-interpolation-filters:linearRGB;solid-color:#000000;solid-opacity:1;vector-effect:none;fill:#000000;fill-opacity:1;fill-rule:nonzero;stroke:none;stroke-width:39.92803574px;stroke-linecap:butt;stroke-linejoin:miter;stroke-miterlimit:4;stroke-dasharray:none;stroke-dashoffset:0;stroke-opacity:1;color-rendering:auto;image-rendering:auto;shape-rendering:auto;text-rendering:auto;enable-background:accumulate"
   d="m 531.28332,68.829244 1.98203,162.241356 38.56999,-0.51005 -1.98203,-162.241329 z"
   id="path866-3-3"
   inkscape:connector-curvature="0" /></svg>