<?xml version="1.0" standalone="no"?>
<!DOCTYPE svg PUBLIC "-//W3C//DTD SVG 20010904//EN"
 "http://www.w3.org/TR/2001/REC-SVG-20010904/DTD/svg10.dtd">
<svg version="1.0" xmlns="http://www.w3.org/2000/svg"
 width="20" height="20" viewBox="0 0 512.000000 512.000000"
 preserveAspectRatio="xMidYMid meet">

<g transform="translate(0.000000,512.000000) scale(0.100000,-0.100000)"
fill="#000000" stroke="none">
<path d="M835 4899 c-158 -22 -342 -105 -477 -216 -147 -120 -279 -331 -330
-528 l-23 -90 0 -1010 0 -1010 23 -84 c92 -336 325 -590 647 -704 155 -54 78
-52 1895 -52 l1685 0 88 22 c190 49 336 131 473 268 122 122 196 238 249 394
46 135 46 159 43 1196 l-3 980 -28 90 c-116 375 -366 623 -735 728 l-77 22
-1685 1 c-927 1 -1712 -2 -1745 -7z m3466 -601 c93 -46 168 -122 212 -215 l32
-68 5 -925 c3 -509 2 -944 -2 -968 -20 -118 -125 -245 -255 -309 l-77 -38
-1666 0 -1665 0 -70 34 c-129 64 -221 185 -245 322 -7 44 -10 344 -8 964 l3
900 23 57 c52 129 155 229 275 267 61 20 92 20 1713 18 l1650 -2 75 -37z"/>
<path d="M2232 707 c-52 -16 -128 -90 -148 -144 -21 -55 -23 -132 -5 -187 17
-49 73 -111 125 -139 40 -21 52 -22 341 -22 290 0 301 1 341 22 49 26 101 83
121 132 20 48 19 146 -2 199 -21 52 -99 124 -153 140 -51 15 -572 15 -620 -1z"/>
</g>
</svg>
