<?xml version="1.0" standalone="no"?>
<!DOCTYPE svg PUBLIC "-//W3C//DTD SVG 20010904//EN"
 "http://www.w3.org/TR/2001/REC-SVG-20010904/DTD/svg10.dtd">
<svg version="1.0" xmlns="http://www.w3.org/2000/svg"
 width="20" height="20" viewBox="0 0 512.000000 512.000000"
 preserveAspectRatio="xMidYMid meet">

<g transform="translate(0.000000,512.000000) scale(0.100000,-0.100000)"
fill="#000000" stroke="none">
<path d="M1696 5104 c-845 -108 -1440 -602 -1630 -1349 -147 -581 -41 -1141
304 -1603 83 -111 266 -300 365 -377 424 -328 990 -455 1514 -339 474 106 892
391 1162 793 179 266 281 554 310 878 33 365 -73 789 -280 1123 -304 488 -824
817 -1393 879 -123 14 -215 12 -352 -5z m419 -618 c452 -99 817 -422 959 -846
108 -325 85 -632 -71 -945 -160 -321 -415 -549 -731 -655 -151 -50 -242 -64
-407 -64 -169 0 -274 17 -413 65 -631 222 -992 881 -827 1511 92 354 335 652
665 818 139 70 266 109 435 134 60 9 322 -3 390 -18z"/>
<path d="M3640 1701 c-85 -18 -169 -83 -212 -163 -32 -60 -32 -185 -1 -243 12
-23 271 -289 620 -636 667 -665 653 -653 778 -653 159 -1 283 114 293 272 4
55 0 71 -27 126 -27 56 -96 127 -635 660 -450 443 -616 602 -648 616 -52 22
-121 31 -168 21z"/>
</g>
</svg>
