<?xml version="1.0" standalone="no"?>
<!DOCTYPE svg PUBLIC "-//W3C//DTD SVG 20010904//EN"
 "http://www.w3.org/TR/2001/REC-SVG-20010904/DTD/svg10.dtd">
<svg version="1.0" xmlns="http://www.w3.org/2000/svg"
 width="23" height="23" viewBox="0 0 512.000000 512.000000"
 preserveAspectRatio="xMidYMid meet">
<metadata>
Created by potrace 1.16, written by Peter Selinger 2001-2019
</metadata>
<g transform="translate(0.000000,512.000000) scale(0.100000,-0.100000)"
fill="#000000" stroke="none">
<path d="M2132 5085 c-48 -42 -46 -32 -81 -325 l-26 -215 -135 -47 c-74 -26
-184 -72 -244 -102 l-109 -54 -182 142 c-99 79 -190 148 -202 154 -27 15 -83
15 -120 2 -37 -14 -531 -506 -549 -547 -17 -39 -18 -97 -2 -126 6 -12 75 -103
154 -203 l142 -181 -58 -118 c-33 -65 -78 -175 -101 -245 l-41 -126 -162 -18
c-88 -10 -201 -24 -251 -31 -87 -13 -91 -15 -127 -56 l-38 -42 0 -386 0 -387
35 -42 c42 -49 53 -51 330 -82 105 -12 196 -24 203 -28 7 -4 31 -61 53 -126
22 -66 66 -174 98 -240 l59 -120 -149 -189 c-101 -128 -151 -200 -155 -223
-15 -81 -9 -90 249 -354 133 -137 255 -258 270 -271 30 -23 99 -36 140 -25 14
3 110 73 215 155 l189 149 109 -54 c60 -30 170 -76 244 -102 l135 -47 26 -215
c35 -293 33 -283 81 -325 l42 -35 386 0 385 0 38 31 c21 18 42 42 47 54 5 13
21 124 35 247 14 122 29 229 33 236 4 7 61 31 127 53 66 22 174 66 239 98
l119 59 181 -142 c100 -79 191 -148 203 -154 29 -16 86 -15 126 1 38 16 526
505 544 545 16 35 16 97 2 125 -7 12 -76 103 -155 203 l-142 180 55 113 c31
63 77 172 102 244 l46 132 215 26 c293 35 283 33 325 81 l35 42 0 386 0 386
-35 42 c-42 48 -32 46 -325 81 l-215 26 -47 135 c-26 74 -72 184 -102 244
l-55 110 143 181 c79 99 148 190 155 202 14 27 14 83 1 120 -14 37 -506 531
-547 549 -50 22 -105 18 -146 -10 -20 -14 -110 -83 -200 -154 l-164 -130 -120
59 c-66 32 -173 76 -239 98 -65 22 -122 46 -126 53 -4 7 -19 114 -33 236 -14
123 -30 234 -35 247 -5 12 -26 36 -47 54 l-38 31 -385 0 -386 0 -42 -35z m641
-1270 c533 -93 948 -509 1042 -1043 20 -111 20 -313 0 -424 -94 -535 -508
-949 -1041 -1042 -114 -20 -314 -20 -428 0 -467 81 -844 408 -996 861 -79 239
-81 531 -4 773 142 451 528 790 993 874 104 19 328 20 434 1z"/>
</g>
</svg>
