<?xml version="1.0" standalone="no"?>
<!DOCTYPE svg PUBLIC "-//W3C//DTD SVG 20010904//EN"
 "http://www.w3.org/TR/2001/REC-SVG-20010904/DTD/svg10.dtd">
<svg version="1.0" xmlns="http://www.w3.org/2000/svg"
 width="20" height="20" viewBox="0 0 512.000000 512.000000"
 preserveAspectRatio="xMidYMid meet">

<g transform="translate(0.000000,512.000000) scale(0.100000,-0.100000)"
fill="#000000" stroke="none">
<path d="M2441 5104 c-127 -34 -155 -57 -528 -428 -386 -385 -395 -396 -395
-505 0 -170 154 -284 318 -236 56 16 69 27 267 223 l207 206 0 -1306 c0 -1418
-3 -1346 55 -1422 14 -18 49 -46 77 -62 136 -75 305 -6 356 145 9 25 12 376
12 1339 l0 1306 208 -206 c197 -196 210 -207 265 -223 100 -29 190 -3 259 73
44 48 62 100 62 173 -1 97 -23 124 -403 501 -280 278 -358 350 -407 376 -116
60 -240 77 -353 46z"/>
<path d="M161 2793 c-62 -22 -124 -87 -146 -153 -15 -46 -17 -74 -11 -194 22
-476 168 -921 428 -1308 193 -289 487 -572 778 -753 694 -430 1542 -503 2307
-200 326 129 614 325 878 596 443 455 693 1032 722 1667 7 168 -6 221 -72 287
-98 98 -252 98 -350 0 -55 -55 -72 -110 -79 -265 -8 -160 -28 -295 -67 -440
-193 -724 -775 -1294 -1502 -1470 -1096 -266 -2201 399 -2482 1494 -35 138
-65 353 -65 472 0 93 -23 157 -75 209 -69 70 -169 91 -264 58z"/>
</g>
</svg>
